<?xml version="1.0" encoding="utf-8"?>
<!-- Generator: Adobe Illustrator 25.0.1, SVG Export Plug-In . SVG Version: 6.00 Build 0)  -->
<svg version="1.0" id="katman_1" xmlns="http://www.w3.org/2000/svg" xmlns:xlink="http://www.w3.org/1999/xlink" x="0px" y="0px"
	 viewBox="0 100 560 200" style="enable-background:new 0 0 560 400;" xml:space="preserve">
<style type="text/css">
	.st0{fill:#1D1D1B;}
</style>
<g transform="translate(0 -1052.3)">
	<path class="st0" d="M284.3,1204.7h6.6v-1.6l-1.7-1.7H281l-1.7,1.7v13.2l1.7,1.6h8.2l1.7-1.6v-1.6h-6.6v-3.3h6.6v-3.3h-6.6V1204.7z
		"/>
	<rect x="280.5" y="1186.6" class="st0" width="9.3" height="9.3"/>
	<path class="st0" d="M271.7,1201.4v6.6h-4.9v-6.6h-3.3l-1.7,1.7v13.2l1.7,1.6h3.3v-6.6h4.9v6.6h3.3l1.6-1.6V1203l-1.6-1.7H271.7z"
		/>
	<path class="st0" d="M245.9,1201.4l-1.7,1.7v1.6h4.9v11.5l1.7,1.6h1.6l1.6-1.6v-11.5h4.9v-1.6l-1.6-1.7H245.9z"/>
	<path class="st0" d="M66.6,1223.5l-6.6,6.6v26.4l6.6,6.6h26.4v13.2H79.8v-6.6H60v13.2l6.6,6.6h39.5l6.6-6.6v-26.4l-6.6-6.6H79.8
		v-13.2h13.2v6.6h19.8v-13.2l-6.6-6.6L66.6,1223.5z"/>
	<path class="st0" d="M244.5,1223.5v65.9h46.1l6.6-6.6v-52.7l-6.6-6.6L244.5,1223.5L244.5,1223.5z M264.3,1236.7h13.2v39.5h-13.2
		V1236.7z"/>
	<path class="st0" d="M303.8,1223.5v65.9h46.1l6.6-6.6v-19.8l-6.6-6.6l6.6-6.6v-19.8l-6.6-6.6L303.8,1223.5L303.8,1223.5z
		 M323.6,1263.1h13.2v13.2h-13.2V1263.1 M323.6,1249.9v-13.2h13.2v13.2H323.6z"/>
	<path class="st0" d="M369.7,1223.5l-6.6,6.6v52.7l6.6,6.6h39.5l6.6-6.6v-52.7l-6.6-6.6H369.7z M382.9,1236.7h13.2v39.5h-13.2
		V1236.7z"/>
	
		<rect x="478.8" y="1247.7" transform="matrix(0.7071 -0.7071 0.7071 0.7071 -745.6551 712.7641)" class="st0" width="17.6" height="17.6"/>
	
		<rect x="136.1" y="1296.7" transform="matrix(0.7071 -0.7071 0.7071 0.7071 -880.691 484.8492)" class="st0" width="17.6" height="17.6"/>
	<path class="st0" d="M455.4,1223.5v19.8l-6.6,6.6l-6.6-6.6v-19.8H429l-6.6,6.6v19.8l6.6,6.6l-6.6,6.6v19.8l6.6,6.6h13.2v-19.8
		l6.6-6.6l6.6,6.6v19.8h13.2l6.6-6.6v-19.8l-6.6-6.6l6.6-6.6v-19.8l-6.6-6.6H455.4z"/>
	<path class="st0" d="M218.1,1223.5v19.8l-19.8-19.8h-13.2l-6.6,6.6v52.7l6.6,6.6h13.2v-39.5l19.8,19.8v19.8h13.2l6.6-6.6v-52.7
		l-6.6-6.6H218.1z"/>
	<path class="st0" d="M165.4,1223.7h-39.5l-6.6,6.6v52.7l6.6,6.6h13.2v-26.4h13.2v26.4h13.2l6.6-6.6v-52.7L165.4,1223.7z
		 M145.7,1252.4l-8.4-8.4l8.4-8.4l8.4,8.4L145.7,1252.4z"/>
</g>
</svg>
